<?xml version="1.0" encoding="UTF-8"?>
<svg id="Layer_1" data-name="Layer 1" xmlns="http://www.w3.org/2000/svg" viewBox="0 0 562.65 586.15">
  <defs>
    <style>
      .cls-1 {
        fill: #fff;
      }
    </style>
  </defs>
  <path class="cls-1" d="M557.4,375.1c7.27-92.17-116.4-422.69-237.52-362.74-13.89,7.43-24.99,18.84-35.03,31.21-66.33,88.91-122.43,186.7-202.61,264.47-22.43,22.03-45.31,43.33-60.11,70.98-26.81,48.85-21.24,112.06,9.66,157.79,11.49,18.11,57.34,66.08,73.44,31.56,1.95-4.11,3.42-10.02,4.69-15.32,8.75-50.21,28.9-105.46,71.26-133.57,13.06-8.77,31.89-16.93,46.47-8.33,9.63,5.66,16.32,16.68,24.84,24.18,12.24,11.68,29.56,11.94,44.93,6.41,37.82-11.75,70.11-55.12,94.77-36.65,12.44,12.37,13.74,31.1,12.11,51.19-.63,5.85-1.7,11.69-3.15,17.41-3.11,12.35-7.92,24.06-13.29,34.84-18.68,37.44-34.86,50.78-26.73,63.31,4.33,6.83,17.42,8.36,26.38,8.14,11.32-.14,24.01-2.62,35.22-6.6,74.99-25.9,135.79-108.63,134.67-198.14v-.17ZM318.26,135.43c6.71-23.72,20.47-20.18,36-4.97,15.24,14.66,24.74,28.15,34.62,51.63,10.96,28.59,21.11,66.62,13.12,96.49-13.65,59.42-112.41,81.36-147.27,27.4-9.58-19.78,3.12-34.8,15.99-60,19.23-34.89,35.73-72.66,47.48-110.36l.06-.2Z"/>
</svg>