<?xml version="1.0" encoding="UTF-8"?>
<svg id="Layer_1" data-name="Layer 1" xmlns="http://www.w3.org/2000/svg" viewBox="0 0 612 588.64">
  <defs>
    <style>
      .cls-1 {
        fill: #fff;
      }
    </style>
  </defs>
  <path class="cls-1" d="M582.96,40.68v284.95l-96.33-55.63v-62.7c0-6.98-5.74-12-12-12-1.97,0-4.01.52-5.94,1.65l-54.31,31.35-96.33-55.63L564.81,30.21c1.93-1.12,4.01-1.65,6.02-1.65,6.34,0,12.12,5.06,12.12,12.12Z"/>
  <path class="cls-1" d="M558.87,478.56l-72.25,41.7-12.04,6.98-12.04,6.94-41.98,24.24c-1.93,1.08-4.05,1.65-6.18,1.65s-4.25-.56-6.18-1.65l-72.13-41.66c-7.99-4.62-7.99-16.18,0-20.79l126.48-73.05,12.04,6.94,12.04,6.98,72.25,41.7Z"/>
  <path class="cls-1" d="M582.96,353.4v111.26l-96.33-55.63-12.04-6.94-12.04-6.94-144.5-83.45-12.04-6.94-12.04-6.94-96.33-55.63-24.08-13.89-30.43-17.58c-1.93-1.12-3.93-1.61-5.9-1.61-6.18,0-11.84,4.94-11.84,11.84v292.41c0,7.02-5.74,12.04-12.04,12.04-1.97,0-4.05-.52-5.98-1.61l-72.49-41.86c-3.61-2.09-5.82-5.94-5.82-10.07V54.61c0-7.06,5.82-12.12,12.16-12.12,2.01,0,4.05.48,6.02,1.65l222.65,128.52,12.04,6.94,12.04,6.98,96.33,55.59,11.96,6.9,12.12,7.02,48.17,27.78,12.04,6.94,12.04,6.98,96.33,55.59Z"/>
</svg>